<svg xmlns="http://www.w3.org/2000/svg" fill="none" viewBox="0 0 115 84">
    <path fill="#B69DFC"
          d="M63.63 26.515c-14.034.023-27.484 6.938-36.444 14.147-9.124 7.159-13.76 14.61-13.964 14.62-2.07 3.01-.791 7.576 2.609 10.063A144.82 144.82 0 0 0 31.253 74.8c8.87 4.674 19.865 9.2 30.656 9.2 10.79 0 22.546-4.649 32.228-9.398a183.827 183.827 0 0 0 17.101-9.6c3.502-2.297 4.853-6.71 2.786-9.72-.204 0-4.838-7.461-13.962-14.62-8.95-7.209-22.395-14.124-36.432-14.146Z"/>
    <path fill="#F0F0F0"
          d="M99.057 50.81c-2.465 14.25-13.663 25.543-26.39 25.437-12.718-.058-23.449-11.33-24.65-25.365-1.368-14.041 10.38-25.141 26.922-25.252 16.546-.162 26.73 10.915 24.118 25.18Z"/>
    <path fill="#2A0316"
          d="M91.662 47.144c-1.025 7.209-7.196 13.038-14.057 13.01-6.86-.027-12.437-5.797-12.437-12.92s6.343-12.88 14.263-12.948c7.92-.068 13.273 5.649 12.231 12.858Z"/>
    <path fill="#F0F0F0"
          d="M93.28 42.535c-.498 3.232-3.483 5.87-6.74 5.883-3.256.012-5.698-2.586-5.425-5.793.274-3.207 3.319-5.827 6.801-5.867 3.483-.04 5.86 2.538 5.363 5.777Z"/>
    <path fill="#416467"
          d="M7.557 46.12a4.71 4.71 0 0 1-1.604-.84 3.98 3.98 0 0 1-1.074-1.331 3.65 3.65 0 0 1-.377-1.617c0-.561.129-1.123.378-1.653 0 0 10.76-22.849 38.416-30.771 27.655-7.923 51.698.42 51.698.42 2.478.857 3.933 3.459 3.234 5.774l-.625 2.068c-.699 2.316-3.32 3.555-5.817 2.752 0 0-17.88-5.723-42.713 2.347-10.991 3.573-22.454 10.13-32.649 21.622-.793.89-1.881 1.55-3.103 1.882a6.69 6.69 0 0 1-3.682-.038l-2.082-.616Z"/>
</svg>